<svg xmlns="http://www.w3.org/2000/svg" width="40" height="39" id="instagram"><path d="M33.212 38.651H7.015c-3.459 0-6.273-2.808-6.273-6.26V6.26C.742 2.808 3.556 0 7.015 0h26.197c3.458 0 6.272 2.808 6.272 6.26v26.132c0 3.452-2.814 6.259-6.272 6.259ZM13.742 8h13a5 5 0 0 1 5 5v13a5 5 0 0 1-5 5h-13a5 5 0 0 1-5-5V13a5 5 0 0 1 5-5Zm0-3a8 8 0 0 0-8 8v13a8 8 0 0 0 8 8h13a8 8 0 0 0 8-8V13a8 8 0 0 0-8-8h-13Zm6.5 21.5a7 7 0 1 0 0-14 7 7 0 0 0 0 14Zm0-3a4 4 0 1 1 0-8 4 4 0 0 1 0 8Zm7.5-9.5a2 2 0 1 0 0-4 2 2 0 0 0 0 4Z"></path></svg>