<svg width="124" height="166" viewBox="0 0 124 166" fill="none" xmlns="http://www.w3.org/2000/svg">
<path d="M24.9107 156.636C25.2947 157.26 25.4387 157.824 25.3427 158.328C25.2467 158.856 25.0067 159.288 24.6227 159.624C24.2387 159.984 23.7707 160.212 23.2187 160.308C22.6907 160.404 22.1507 160.344 21.5987 160.128C21.0707 159.936 20.6147 159.552 20.2307 158.976L17.6747 154.8C17.3627 154.32 16.9547 153.96 16.4507 153.72C15.9707 153.504 15.3467 153.396 14.5787 153.396L18.8267 151.776C19.9307 151.776 20.8307 151.968 21.5267 152.352C22.2467 152.736 22.8947 153.396 23.4707 154.332L24.9107 156.636ZM14.6147 153.396C12.1187 153.396 9.92272 152.856 8.02672 151.776C6.15472 150.672 4.69072 149.136 3.63472 147.168C2.60272 145.2 2.08672 142.908 2.08672 140.292C2.08672 138.3 2.37472 136.512 2.95072 134.928C3.55072 133.32 4.40272 131.952 5.50672 130.824C6.61072 129.672 7.93072 128.784 9.46672 128.16C11.0267 127.536 12.7427 127.224 14.6147 127.224C17.1587 127.224 19.3667 127.764 21.2387 128.844C23.1107 129.924 24.5627 131.448 25.5947 133.416C26.6507 135.36 27.1787 137.64 27.1787 140.256C27.1787 142.248 26.8787 144.048 26.2787 145.656C25.6787 147.264 24.8267 148.644 23.7227 149.796C22.6187 150.948 21.2987 151.836 19.7627 152.46C18.2267 153.084 16.5107 153.396 14.6147 153.396ZM14.6147 148.644C16.0307 148.644 17.2307 148.32 18.2147 147.672C19.2227 147 19.9907 146.04 20.5187 144.792C21.0707 143.52 21.3467 142.02 21.3467 140.292C21.3467 137.652 20.7587 135.612 19.5827 134.172C18.4067 132.708 16.7507 131.976 14.6147 131.976C13.2227 131.976 12.0227 132.3 11.0147 132.948C10.0067 133.596 9.23872 134.544 8.71072 135.792C8.18272 137.04 7.91872 138.54 7.91872 140.292C7.91872 142.908 8.50672 144.96 9.68272 146.448C10.8587 147.912 12.5027 148.644 14.6147 148.644ZM37.1831 153.396C35.6951 153.396 34.4591 153.12 33.4751 152.568C32.4911 152.016 31.7591 151.188 31.2791 150.084C30.8231 148.956 30.5951 147.564 30.5951 145.908V137.772C30.5951 136.86 30.8231 136.176 31.2791 135.72C31.7591 135.264 32.4311 135.036 33.2951 135.036C34.1591 135.036 34.8311 135.264 35.3111 135.72C35.7911 136.176 36.0311 136.86 36.0311 137.772V146.052C36.0311 147.108 36.2471 147.9 36.6791 148.428C37.1111 148.932 37.7951 149.184 38.7311 149.184C39.7631 149.184 40.6031 148.824 41.2511 148.104C41.9231 147.36 42.2591 146.388 42.2591 145.188V137.772C42.2591 136.86 42.4871 136.176 42.9431 135.72C43.4231 135.264 44.0951 135.036 44.9591 135.036C45.8471 135.036 46.5191 135.264 46.9751 135.72C47.4551 136.176 47.6951 136.86 47.6951 137.772V150.552C47.6951 152.4 46.8191 153.324 45.0671 153.324C44.2031 153.324 43.5431 153.084 43.0871 152.604C42.6311 152.124 42.4031 151.44 42.4031 150.552V148.14L42.9431 149.544C42.4151 150.768 41.6591 151.716 40.6751 152.388C39.6911 153.06 38.5271 153.396 37.1831 153.396ZM60.7214 153.396C58.6334 153.396 56.8334 153.024 55.3214 152.28C53.8334 151.512 52.6814 150.444 51.8654 149.076C51.0734 147.684 50.6774 146.052 50.6774 144.18C50.6774 142.356 51.0614 140.76 51.8294 139.392C52.5974 138 53.6654 136.92 55.0334 136.152C56.4254 135.36 57.9974 134.964 59.7494 134.964C61.0214 134.964 62.1734 135.18 63.2054 135.612C64.2374 136.02 65.1254 136.62 65.8694 137.412C66.6134 138.18 67.1774 139.128 67.5614 140.256C67.9454 141.36 68.1374 142.596 68.1374 143.964C68.1374 144.42 67.9934 144.768 67.7054 145.008C67.4174 145.224 66.9974 145.332 66.4454 145.332H55.1414V142.524H64.2134L63.6374 143.028C63.6374 142.044 63.4934 141.228 63.2054 140.58C62.9174 139.908 62.4974 139.404 61.9454 139.068C61.4174 138.732 60.7574 138.564 59.9654 138.564C59.0774 138.564 58.3214 138.768 57.6974 139.176C57.0734 139.584 56.5934 140.172 56.2574 140.94C55.9214 141.708 55.7534 142.632 55.7534 143.712V144C55.7534 145.824 56.1734 147.168 57.0134 148.032C57.8774 148.896 59.1494 149.328 60.8294 149.328C61.4054 149.328 62.0654 149.256 62.8094 149.112C63.5534 148.968 64.2494 148.74 64.8974 148.428C65.4494 148.164 65.9414 148.08 66.3734 148.176C66.8054 148.248 67.1414 148.44 67.3814 148.752C67.6214 149.064 67.7534 149.424 67.7774 149.832C67.8254 150.24 67.7414 150.648 67.5254 151.056C67.3094 151.44 66.9494 151.764 66.4454 152.028C65.6294 152.484 64.7054 152.82 63.6734 153.036C62.6654 153.276 61.6814 153.396 60.7214 153.396ZM80.1193 153.396C78.0313 153.396 76.2312 153.024 74.7192 152.28C73.2312 151.512 72.0792 150.444 71.2632 149.076C70.4712 147.684 70.0752 146.052 70.0752 144.18C70.0752 142.356 70.4592 140.76 71.2272 139.392C71.9952 138 73.0632 136.92 74.4312 136.152C75.8233 135.36 77.3953 134.964 79.1473 134.964C80.4193 134.964 81.5713 135.18 82.6033 135.612C83.6353 136.02 84.5233 136.62 85.2673 137.412C86.0113 138.18 86.5753 139.128 86.9593 140.256C87.3433 141.36 87.5353 142.596 87.5353 143.964C87.5353 144.42 87.3913 144.768 87.1033 145.008C86.8153 145.224 86.3953 145.332 85.8433 145.332H74.5392V142.524H83.6113L83.0353 143.028C83.0353 142.044 82.8913 141.228 82.6033 140.58C82.3153 139.908 81.8952 139.404 81.3432 139.068C80.8153 138.732 80.1553 138.564 79.3633 138.564C78.4753 138.564 77.7193 138.768 77.0953 139.176C76.4713 139.584 75.9913 140.172 75.6553 140.94C75.3193 141.708 75.1513 142.632 75.1513 143.712V144C75.1513 145.824 75.5713 147.168 76.4112 148.032C77.2752 148.896 78.5473 149.328 80.2273 149.328C80.8032 149.328 81.4633 149.256 82.2073 149.112C82.9513 148.968 83.6473 148.74 84.2953 148.428C84.8473 148.164 85.3393 148.08 85.7713 148.176C86.2033 148.248 86.5393 148.44 86.7793 148.752C87.0193 149.064 87.1513 149.424 87.1752 149.832C87.2233 150.24 87.1393 150.648 86.9233 151.056C86.7073 151.44 86.3473 151.764 85.8433 152.028C85.0273 152.484 84.1033 152.82 83.0713 153.036C82.0633 153.276 81.0793 153.396 80.1193 153.396ZM91.4975 153C90.9695 153 90.5255 152.868 90.1655 152.604C89.8055 152.316 89.5655 151.956 89.4455 151.524C89.3255 151.092 89.3255 150.624 89.4455 150.12C89.5895 149.616 89.8655 149.148 90.2735 148.716L99.0935 138.132V139.392H91.2815C90.6335 139.392 90.1295 139.212 89.7695 138.852C89.4095 138.492 89.2295 138 89.2295 137.376C89.2295 136.704 89.4095 136.2 89.7695 135.864C90.1295 135.504 90.6335 135.324 91.2815 135.324H101.685C102.333 135.324 102.85 135.468 103.234 135.756C103.618 136.044 103.87 136.404 103.99 136.836C104.133 137.244 104.145 137.7 104.025 138.204C103.93 138.684 103.678 139.14 103.269 139.572L94.2335 150.372V148.968H102.585C103.954 148.968 104.638 149.64 104.638 150.984C104.638 151.632 104.458 152.136 104.097 152.496C103.738 152.832 103.234 153 102.585 153H91.4975ZM111.43 159.804C110.806 159.804 110.29 159.636 109.882 159.3C109.474 158.964 109.234 158.52 109.162 157.968C109.09 157.44 109.186 156.876 109.45 156.276L111.862 150.948V153.18L105.49 138.564C105.25 137.94 105.166 137.364 105.238 136.836C105.334 136.284 105.598 135.852 106.03 135.54C106.486 135.204 107.11 135.036 107.902 135.036C108.55 135.036 109.066 135.192 109.45 135.504C109.858 135.792 110.23 136.356 110.566 137.196L114.814 147.996H113.662L118.054 137.16C118.39 136.344 118.762 135.792 119.17 135.504C119.602 135.192 120.178 135.036 120.898 135.036C121.522 135.036 122.014 135.204 122.374 135.54C122.758 135.852 122.986 136.272 123.058 136.8C123.154 137.328 123.058 137.904 122.77 138.528L114.31 157.716C113.95 158.532 113.542 159.084 113.086 159.372C112.654 159.66 112.102 159.804 111.43 159.804Z" fill="white"/>
<mask id="mask0_1_5187" style="mask-type:alpha" maskUnits="userSpaceOnUse" x="12" y="0" width="100" height="100">
<rect x="12" width="100" height="100" rx="24" fill="#6A5AE0"/>
</mask>
<g mask="url(#mask0_1_5187)">
<path d="M115.216 72.2475C115.216 86.2713 109.6 99.7208 99.6046 109.637C89.609 119.554 76.0522 125.125 61.9162 125.125C61.1871 125.125 60.4719 125.111 59.7429 125.084C55.8493 124.926 51.9846 124.35 48.2163 123.365C48.9453 122.996 49.6606 122.628 50.3758 122.232C50.3896 122.232 50.4033 122.218 50.4308 122.205L50.4446 122.191C51.2011 121.782 51.9439 121.372 52.6729 120.949C52.8517 120.84 53.0305 120.745 53.2093 120.649C53.8971 120.24 54.5848 119.83 55.2588 119.394C55.4581 119.287 55.651 119.168 55.8365 119.039C56.3592 118.725 56.8819 118.384 57.3908 118.043C57.7484 117.811 58.1198 117.565 58.4637 117.333C58.9864 116.978 59.4953 116.624 60.0042 116.255C60.3481 116.023 60.6645 115.791 60.9946 115.532C61.4347 115.232 61.8611 114.904 62.2875 114.577C62.6727 114.304 63.044 114.017 63.4154 113.717C63.9381 113.321 64.447 112.912 64.956 112.475C65.1761 112.312 65.3961 112.134 65.6162 111.943C66.1664 111.493 66.7028 111.029 67.2393 110.551C67.5281 110.306 67.817 110.06 68.1058 109.787C68.4222 109.514 68.7248 109.241 69.0274 108.955C69.6051 108.436 70.1691 107.89 70.733 107.345C70.8085 107.283 70.8777 107.215 70.9393 107.14C71.4895 106.621 72.026 106.075 72.5487 105.53C72.92 105.175 73.2639 104.806 73.594 104.438C73.9929 104.042 74.3643 103.633 74.7357 103.224C74.9558 102.992 75.1621 102.76 75.3546 102.528C75.8498 101.982 76.3312 101.422 76.8127 100.863C77.0603 100.576 77.3078 100.276 77.5417 99.9758C77.8993 99.5664 78.2432 99.1571 78.5595 98.734C78.8896 98.3383 79.206 97.9289 79.5086 97.5196C79.7975 97.1648 80.0726 96.7963 80.3339 96.4415C80.6915 95.9776 81.0354 95.5136 81.3655 95.036C81.6956 94.5584 82.0533 94.0808 82.3834 93.5896C82.5472 93.3753 82.6988 93.1521 82.8373 92.9209C83.305 92.2386 83.7589 91.5427 84.199 90.8468C84.763 89.9871 85.2994 89.1137 85.8083 88.2268C86.0422 87.8447 86.2623 87.4626 86.4823 87.0805C88.2661 83.9596 89.8556 80.733 91.2415 77.4193C91.4478 76.9553 91.6404 76.4914 91.8192 76.0138C92.0393 75.5089 92.2319 74.9903 92.4244 74.4718C92.5895 74.0488 92.7545 73.6121 92.9059 73.1754C93.0847 72.6978 93.2497 72.2066 93.4148 71.729C94.02 69.9823 94.5702 68.222 95.0516 66.4344C95.1754 65.9841 95.2992 65.5474 95.4092 65.0971C95.4918 64.8106 95.5605 64.5376 95.6293 64.2511L95.9594 62.8592C96.3996 60.9625 96.771 59.052 97.0873 57.1143L97.2937 55.8043C97.3212 55.5997 97.3487 55.4086 97.3762 55.2039C97.4587 54.6854 97.5275 54.1668 97.5825 53.6483C97.6788 52.8705 97.7751 52.0927 97.8438 51.3149C97.8714 51.1102 97.8851 50.9055 97.8989 50.7008C97.9539 50.1686 97.9952 49.6228 98.0364 49.0906C98.0777 48.5584 98.1052 47.9989 98.1327 47.4531C98.1602 47.071 98.174 46.6889 98.1877 46.2932C98.2427 45.0378 98.2702 43.7824 98.2702 42.527C98.2702 41.8856 98.2703 41.2579 98.2427 40.6302C98.2427 40.3027 98.2427 39.9889 98.229 39.6614C98.1877 38.5288 98.1327 37.4098 98.0502 36.2908L98.0502 36.2499C98.0364 35.977 98.0227 35.7041 97.9952 35.4312C97.9401 34.6806 97.8714 33.9438 97.8026 33.1932C97.803 33.1698 97.7983 33.1464 97.7888 33.125C99.642 34.7995 101.375 36.6006 102.974 38.5151L103.016 38.556C103.023 38.5634 103.028 38.573 103.029 38.5833C110.926 48.0509 115.237 59.9593 115.216 72.2475Z" fill="#FF8FA2"/>
<path d="M98.2163 42.2831C98.2237 58.6065 93.7874 74.6283 85.3768 88.6527C76.9663 102.677 64.8943 114.183 50.4387 121.951C50.4209 121.972 50.3967 121.987 50.3699 121.992L50.3563 122.006C49.6417 122.388 48.9272 122.757 48.2127 123.125C43.7283 121.951 39.4214 120.189 35.406 117.885C32.5011 116.223 29.7592 114.295 27.2163 112.126C27.6972 111.621 28.1644 111.116 28.6316 110.597L28.6452 110.584C28.6452 110.57 28.6591 110.557 28.6729 110.543L28.6865 110.543C43.7229 93.9463 52.0266 72.4011 51.9915 50.0752C51.9937 40.458 50.4632 30.9009 47.4568 21.7588L47.4432 21.7588C47.4432 21.7315 47.4294 21.7042 47.4294 21.6769L47.4155 21.6769C47.4077 21.6549 47.403 21.6319 47.4019 21.6086C47.1271 20.7762 46.8386 19.9438 46.5363 19.125L61.8988 19.125C75.1545 19.1068 87.9377 24.0135 97.7354 32.8806C97.8453 33.9178 97.9277 34.9549 97.9964 36.0057C98.1476 38.08 98.2163 40.1679 98.2163 42.2831Z" fill="#9087E5"/>
<path d="M52 49.95C52 50.8643 51.9864 51.7786 51.9591 52.6792C51.9455 53.266 51.9182 53.8392 51.8909 54.426C51.7819 56.7731 51.5774 59.1067 51.2774 61.4266C51.2093 62.027 51.1275 62.6138 51.032 63.2006C50.9366 63.9238 50.8139 64.6335 50.6912 65.3567C50.5821 66.039 50.4594 66.7077 50.3231 67.39C50.2958 67.5538 50.2549 67.7175 50.2276 67.8813C50.1186 68.4408 49.9959 69.0139 49.8732 69.5734C49.2328 72.4818 48.4456 75.3557 47.5146 78.1843C47.3374 78.7438 47.1465 79.2897 46.9556 79.8219C46.939 79.8875 46.9162 79.9515 46.8874 80.0129C46.6966 80.5724 46.5057 81.1046 46.3012 81.6505C46.2467 81.8142 46.1785 81.9916 46.1103 82.169C45.8922 82.7558 45.6604 83.329 45.4287 83.9021C45.1696 84.5572 44.897 85.2122 44.6107 85.8536C44.3244 86.5222 44.0244 87.1909 43.7245 87.8596C43.4382 88.4737 43.1382 89.0877 42.8519 89.6882C42.5384 90.3296 42.2248 90.9573 41.8976 91.5714C41.5704 92.1855 41.2432 92.8132 40.9023 93.4273C40.5615 94.0414 40.2207 94.6555 39.8798 95.2559C39.539 95.8563 39.1709 96.4704 38.8028 97.0709C38.4347 97.6713 38.0666 98.2581 37.6848 98.8449C36.935 100.018 36.1579 101.178 35.3535 102.311C34.5491 103.444 33.7039 104.563 32.8586 105.668C31.577 107.292 30.2501 108.875 28.8776 110.417L28.864 110.417C28.8503 110.431 28.8504 110.431 28.8504 110.444C28.8504 110.448 28.849 110.451 28.8464 110.454C28.8438 110.456 28.8404 110.458 28.8367 110.458C28.3732 110.977 27.896 111.495 27.4188 112C25.2707 110.152 23.2738 108.135 21.4474 105.968C21.4336 105.942 21.4151 105.919 21.3929 105.9C13.3752 96.3821 8.98462 84.3294 9.00004 71.8797L9.00004 19L46.5875 19C46.8874 19.8188 47.1737 20.6376 47.4328 21.47L47.4464 21.4836C47.4476 21.5069 47.4523 21.5299 47.46 21.5519L47.4737 21.5519L47.4737 21.5928C47.4729 21.6002 47.4735 21.6077 47.4759 21.6148C47.4783 21.6219 47.4823 21.6283 47.4873 21.6337L47.5009 21.6337C47.5131 21.6858 47.5314 21.7362 47.5555 21.7838L47.7191 22.3161C48.1826 23.7626 48.6053 25.2227 48.987 26.7102C49.2597 27.7064 49.5051 28.7298 49.7368 29.7533C50.1595 31.6092 50.5276 33.5061 50.8412 35.4302C50.9093 35.8942 50.9911 36.3445 51.0457 36.8085C51.2093 37.9412 51.3592 39.0738 51.4819 40.2201C51.5365 40.6431 51.5774 41.0798 51.6046 41.5029C51.6864 42.2943 51.741 43.0995 51.7955 43.891C51.9318 45.897 52 47.9167 52 49.95Z" fill="#C4D0FB"/>
</g>
<rect x="12" width="100" height="90" rx="24" fill="white"/>
<mask id="mask1_1_5187" style="mask-type:alpha" maskUnits="userSpaceOnUse" x="35" y="14" width="54" height="62">
<path fill-rule="evenodd" clip-rule="evenodd" d="M60.3881 61.5758C62.2584 61.4892 64.0977 61.1912 65.8726 60.6961L68.3771 63.177C70.7337 65.5115 74.563 65.5201 76.9302 63.1964C79.2973 60.8727 79.3059 57.0965 76.9493 54.7621L74.1056 51.9451C73.5754 51.4199 72.9707 51.0124 72.3248 50.7227C70.4574 49.3959 67.821 49.57 65.6936 50.6025C63.9109 51.4678 61.9513 51.9724 59.9312 52.0659C56.314 52.2334 52.7632 51.0705 49.973 48.8046C47.1828 46.5386 45.3538 43.3326 44.8435 39.8133C44.3333 36.2939 45.1785 32.7143 47.214 29.7742C49.2494 26.8341 52.3287 24.7449 55.8499 23.915C59.3711 23.0852 63.081 23.5743 66.2543 25.2869C69.4276 26.9994 71.8362 29.8122 73.0091 33.1754C73.6378 34.9778 73.8873 36.8688 73.7621 38.738C73.582 41.4277 74.6263 44.3347 77.1074 45.3887C79.5416 46.4227 82.4108 45.3097 82.9675 42.7242C83.8666 38.5495 83.6118 34.1835 82.1846 30.0915C80.2296 24.4863 76.2153 19.7983 70.9265 16.944C65.6376 14.0898 59.4545 13.2745 53.5859 14.6576C47.7172 16.0407 42.585 19.5227 39.1927 24.4229C35.8003 29.3231 34.3916 35.2891 35.242 41.1547C36.0923 47.0203 39.1407 52.3636 43.791 56.1402C48.4414 59.9167 54.3594 61.8549 60.3881 61.5758ZM78.6856 65.8097C76.3187 68.1332 76.3098 71.9095 78.6662 74.2437C81.0226 76.5779 84.852 76.5863 87.2189 74.2627C89.5859 71.9392 89.5948 68.163 87.2384 65.8287C84.882 63.4945 81.0526 63.4862 78.6856 65.8097Z" fill="#6A5AE0"/>
</mask>
<g mask="url(#mask1_1_5187)">
<path fill-rule="evenodd" clip-rule="evenodd" d="M67.8164 95.3204L116.83 46.9278L106.232 36.8094L50.1538 92.6809L67.8164 95.3204Z" fill="#6A5AE0"/>
<path fill-rule="evenodd" clip-rule="evenodd" d="M58.1889 82.4282L105.717 36.4962L95.4408 26.8923L41.0615 79.9228L58.1889 82.4282Z" fill="#6A5AE0"/>
<path fill-rule="evenodd" clip-rule="evenodd" d="M43.8934 80.4719L99.7437 25.247L89.9545 14.9235L34.1042 70.1484L43.8934 80.4719Z" fill="#6A5AE0"/>
<path fill-rule="evenodd" clip-rule="evenodd" d="M33.8085 71.5193L89.5531 16.1382L75.0683 10.0331L25.9077 58.8732L33.8085 71.5193Z" fill="#6A5AE0"/>
<path fill-rule="evenodd" clip-rule="evenodd" d="M25.9077 59.6188L76.4199 10.0331L49.3598 12.6895L25.9077 37.9251V59.6188Z" fill="#6A5AE0"/>
</g>
</svg>
